<?xml version="1.0" encoding="utf-8"?>
<!-- Generator: Adobe Illustrator 19.2.1, SVG Export Plug-In . SVG Version: 6.00 Build 0)  -->
<!DOCTYPE svg PUBLIC "-//W3C//DTD SVG 1.1//EN" "http://www.w3.org/Graphics/SVG/1.1/DTD/svg11.dtd">
<svg version="1.1" id="Layer_1" xmlns="http://www.w3.org/2000/svg" xmlns:xlink="http://www.w3.org/1999/xlink" x="0px" y="0px"
	 width="54.9px" height="54.9px" viewBox="0 0 54.9 54.9" style="enable-background:new 0 0 54.9 54.9;" xml:space="preserve">
<style type="text/css">
	.st0{fill:#FFFFFF;}
</style>
<path class="st0" d="M54.9,46.9C53.1,49,53,49,50.8,50.8c-1.1,0.9-2.3,1.8-3.6,2.6c-0.7,0.4-1.3,0.7-2.1,1l-0.3,0.1
	c0,0-0.2,0.1-0.3,0.1l-0.6,0.2h-0.4l-0.3,0.1h-2l-1.4-0.3L38.5,54c-0.4-0.3-0.7-0.5-1.1-0.9c-0.3-0.3-0.6-0.6-0.8-1l-0.7-1
	c0,0-0.4-0.7-0.5-1.1c-0.2-0.4-0.3-0.7-0.4-1.1c-0.5-1.4-0.8-2.9-1.1-4.3c-0.2-1.4-0.4-2.8-0.5-4.3l-0.2-4.2c0-1.4,0-2.8,0.1-4.2
	c0.1-2.8,0.3-5.6,0.6-8.3c0.3-2.8,0.6-5.5,1-8.3l0.3-2.1l0.2-1l0.2-1c0.2-1.3,0.4-2.7,0.5-4v-3c0,0-0.1-0.1-0.1,0l-0.1,0.1
	c-1.9,2.3-3.6,4.8-5.2,7.5c-1.6,2.7-2.9,5.5-4.2,8.3c-1.2,2.9-2.3,5.7-3.3,8.6l-1.5,4.2L21,35l-0.4,1l-0.2,0.5l-0.1,0.3L20.2,37
	l-0.1,0.2c-0.2,0.5-0.4,0.9-0.7,1.3c-0.2,0.4-0.5,0.8-0.8,1.1l-0.2,0.2l-0.1,0.1L18.2,40l-0.5,0.3c-0.3,0.2-0.7,0.3-1.1,0.4
	c-0.4,0.1-0.8,0-1.2-0.1h-0.1c0,0-0.1,0-0.1-0.1c0,0-0.1,0-0.1-0.1L15,40.3l-0.3-0.1l-0.1-0.1L14.5,40c-0.3-0.2-0.6-0.5-0.8-0.9
	l-0.2-0.3l-0.1-0.1c0,0-0.1-0.1-0.1-0.2c-0.1-0.2-0.2-0.4-0.3-0.7l-0.1-0.2c0-0.1,0-0.1-0.1-0.2c0-0.1-0.1-0.2-0.1-0.4l-0.1-0.4
	c0,0-0.1-0.3-0.1-0.4v-0.4c0,0,0-0.3-0.1-0.4v-0.5c-0.1-0.6-0.1-1.3-0.1-1.9c0-1.3,0-2.6,0.1-4h-0.1c0,0,0.1-0.7,0.1-1.6
	c0.1-0.8,0.1-1.8,0.2-2.5c0,0,0.1,0,0.1-0.1c0,0,0.1-0.4,0.1-0.9c0.1-0.5,0.1-1.2,0.2-1.9h0.1c0.3-2.8,0.8-5.5,1.1-8.2h0.1l0.1-0.6
	c0-0.1,0-0.2,0.1-0.3c0-0.1,0-0.2,0.1-0.3c0-0.1,0-0.2,0.1-0.3v-1.2c0,0,0-0.1,0.1-0.1c0,0,0,0.1-0.1,0c0,0,0-0.1-0.1-0.1v-0.1h-0.1
	c0,0-0.1,0-0.1,0.1l-0.2,0.2L14,11.4l-0.1,0.2c-0.1,0.1-0.1,0.2-0.2,0.4s-0.3,0.5-0.4,0.8c-0.3,0.5-0.6,1.1-0.9,1.7
	c-0.6,1.2-1.2,2.5-1.7,3.6s-1,2.2-1.3,3C9.2,21.5,9.1,21.8,9,22c0,0.1-0.1,0.2-0.1,0.2v0.1c-0.5,1.3-0.9,2.2-1.3,3.1
	s-0.7,1.7-1.2,2.8c0.1-0.6,0.5-1.7-0.4,0.2c-0.5,1.3-1.3,2.9-2,4.6c-0.8,1.7-1.5,3.5-2.2,5l-1.5,3.3c-0.3,0.6-0.4,0.6-0.1-0.4
	c0.2-0.7,0.9-3,1.7-5.2c0.8-2.3,1.5-4.6,1.7-5.2s0.7-2,1-3.1s0.6-2.1,0.5-2.2c0.3-0.6,0.5-1.3,0.7-1.7C6,23,6.1,22.7,6.1,22.7
	c-0.1,0-0.8,1.5-1.6,3.4l-1.2,3c0,0-0.7,1.8-1,2.5C2.1,32.1,2,32.2,2,32s0.2-1.1,0.5-1.9c0,0,0.1-0.3,0.2-0.7c0.1-0.5,0.3-1.1,0.6-2
	c0.5-1.7,1.3-4,2.3-6.5c0.5-1.3,1.1-2.6,1.7-3.9s1.2-2.7,1.9-4.1l1-2.1c0.1-0.2,0.2-0.4,0.3-0.5l0.1-0.3l0.1-0.2l0.1-0.2
	c0.4-0.7,0.8-1.3,1.2-1.9s0.8-1.2,1.3-1.6c0.2-0.2,0.4-0.4,0.7-0.6c0.2-0.2,0.4-0.3,0.6-0.4C14.8,5,15,4.9,15.2,4.9l0.6-0.1h0.4
	c0.1,0,0.3,0,0.4,0.1L17,5l0.3,0.2l0.5,0.4l0.4,0.5c0.2,0.4,0.4,0.9,0.6,1.5C18.9,8.2,19,8.9,19,9.7c0,0.7,0,1.5-0.1,2.3v1.2
	l-0.1,0.3l-0.2,1.1c-0.1,0.7-0.2,1.5-0.4,2.2c-0.5,2.9-0.9,5.8-1.2,8.5C16.9,26,16.8,27,16.7,28s-0.2,2-0.2,2.7c0,0.9-0.1,1.9,0,2.8
	c0,0.5,0,0.9,0.1,1.4v0.4c0,0.1,0,0.2,0.1,0.3c0,0,0,0.1,0.1,0.1H17l0.1-0.1c0.1-0.1,0.1-0.2,0.2-0.2v-0.1c0.1-0.2,0.2-0.4,0.3-0.7
	c0.2-0.5,0.4-0.9,0.5-1.4c0.3-0.9,0.7-1.9,1-2.9l2.1-5.9c0.7-2,1.5-4,2.4-5.9c0.9-2,1.8-3.9,2.8-5.8s2.1-3.8,3.4-5.6
	c0.6-0.9,1.2-1.8,1.9-2.7l1-1.3l0.5-0.6l0.3-0.3l0.3-0.3l0.1-0.1L34,1.7c0-0.1,0.1-0.1,0.1-0.1l0.3-0.3c0.2-0.2,0.4-0.4,0.6-0.5
	c0.1-0.1,0.2-0.2,0.4-0.3c0.1-0.1,0.3-0.2,0.4-0.2c0,0,0.1,0,0.1-0.1c0,0,0.1,0,0.1-0.1L36.1,0H37c0.3,0,0.6,0,0.8,0.1
	c0.3,0.1,0.6,0.2,0.8,0.4l0.2,0.1l0.1,0.1L39,0.8l0.1,0.1L39.2,1l0.1,0.1v0.2l0.1,0.1c0,0,0,0.1,0.1,0.1c0.2,0.3,0.2,0.6,0.3,0.9
	v0.4c0,0,0,0.3,0.1,0.4C40,3.7,40,4.2,40,4.7v1.4c-0.1,0.9-0.2,1.8-0.3,2.6l-0.4,2.6c-0.1,0.4-0.2,0.9-0.2,1.3l-0.2,1.2
	c-0.3,1.5-0.5,2.9-0.7,4.4v-0.1c0.1-0.9,0.2-1.7,0.4-2.5c-0.2,1-0.3,2.1-0.4,3.1l0.1-0.6c-0.2,1.2-0.3,2.4-0.4,3.6
	c-0.3,2.4-0.4,4.4-0.5,5.1c-0.3,2-0.5,4.4-0.6,7.1c-0.1,1.4-0.1,2.8,0,4.3c0,1.5,0.2,3.1,0.4,4.8c-0.1,0,0,1.4,0.3,2.7
	c0.2,1,0.5,2,0.9,3c0.2,0.5,0.4,1,0.7,1.5l0.1,0.1l0.1,0.1l0.1,0.2c0.1,0.1,0.2,0.2,0.2,0.3l0.5,0.6c0,0,0.4,0.3,0.6,0.5l0.3,0.2
	l0.2,0.1c0.1,0,0.1,0,0.2,0.1c0.4,0.2,0.9,0.3,1.4,0.3h1.6c0.5-0.1,0.9-0.3,1.4-0.5l-0.2,0.1l-0.1,0.1h-0.1l-0.2,0.1L45,52.6h-0.2
	l-0.2,0.1l-0.2,0.1c-0.1,0-0.1,0-0.2,0.1h-0.9c-0.3,0-0.6,0-0.9-0.1c-0.3-0.1-0.3,0-0.1,0h1.5h-0.2h-1c-0.3,0-0.7-0.1-1-0.3
	c-0.3-0.1-0.6-0.3-0.9-0.6c-0.3-0.2-0.6-0.5-0.8-0.8c-0.5-0.6-0.9-1.3-1.2-2.1c-0.1-0.2-0.1-0.4-0.2-0.5c-0.1-0.2-0.1-0.4-0.2-0.5
	l-0.2-0.5c0-0.2-0.1-0.3-0.1-0.4h-0.1v0.1c0.3,1,0.6,1.8,1,2.6s0.8,1.5,1.4,2c0.3,0.3,0.6,0.5,0.9,0.7c0.3,0.2,0.7,0.3,1.1,0.4
	c0.4,0.1,0.8,0.1,1.3,0.1c0.4,0,0.9-0.1,1.4-0.3c0.5-0.1,0.9-0.3,1.3-0.5c0.2-0.1,0.4-0.2,0.5-0.2l0.2-0.1c0.1,0,0.2-0.1,0.2-0.1
	c0.1-0.1,0.3-0.2,0.4-0.2l0.2-0.1l0.2-0.1l0.3-0.2l0.2-0.1c0.1-0.1,0.3-0.1,0.3-0.2h0.1L48.8,51c0,0-0.2,0.1-0.3,0.2
	c-0.6,0.4-1.1,0.8-1.8,1.1c-0.6,0.3-1.3,0.6-2,0.8s-1.5,0.3-2.2,0.2c-0.4,0-0.7-0.1-1.1-0.3c-0.3-0.1-0.7-0.3-1-0.6
	c-0.6-0.5-1.1-1-1.5-1.7c-0.2-0.3-0.4-0.7-0.5-1c-0.2-0.3-0.3-0.7-0.4-1c-0.1-0.3-0.2-0.7-0.4-1.1l-0.3-1.1
	c-0.2-0.6-0.3-1.3-0.4-1.9c0.1,0.6,0.1,0.8,0.2,1v0.2L37,45.3c-0.1-0.5-0.2-0.9-0.2-1.4c0-0.6-0.1-0.9-0.1-1.4l-0.5-4v2
	c0,0.4,0.2,0.8,0.1,1.2C36,43.3,37,46.4,37.1,48c-0.1-0.1-1.1-3.5-1.3-4.2c-0.3-1.1-0.6-4.8-0.4-2.2l0.1,2.9c0.2,1,0.4,2.1,0.7,3.1
	c0,0.1,0,0.1,0.1,0.2c0.4,0.9,0.6,1.6,0.7,1.8c0.3,0.5,0.7,1.2,0.8,1.5c0.7,1.1,0.4,0.8-0.3-0.3c0,0,0-0.1-0.1-0.1
	c0,0,0,0.1,0.1,0.1c0.3,0.5,0.6,1.1,1,1.5l0.2,0.2l0.2,0.2l0.1,0.1l0.1,0.1l0.2,0.2l0.2,0.2l0.1,0.1l0.1,0.1l0.2,0.2l0.2,0.1
	c0.3,0.2,0.6,0.4,0.9,0.5l0.5,0.2c0.1,0,0.2,0,0.2,0.1h0.2c0.1,0,0.2,0.1,0.4,0.1h1.6c0.2,0,0.4,0,0.5-0.1c0.2,0,0.3,0,0.4-0.1
	c0.2,0,0.4-0.1,0.5-0.1s1.4-0.4,2.7-1.2c1.7-1,3.6-2.5,4.9-3.7C53.8,47.9,53.8,47.8,54.9,46.9L54.9,46.9z"/>
</svg>
